<svg width="346" height="118" viewBox="0 0 346 118" fill="none" xmlns="http://www.w3.org/2000/svg">
<path d="M20.36 16.704C22.184 17.12 23.768 18.256 25.112 20.112C26.456 21.968 27.864 24.416 29.336 27.456C30.072 28.992 30.664 30.144 31.112 30.912C31.592 31.68 32.04 32.144 32.456 32.304L34.184 32.832V36H25.496C24.696 36 23.944 35.392 23.24 34.176C22.568 32.96 21.736 31.104 20.744 28.608C19.528 25.632 18.456 23.376 17.528 21.84C16.6 20.272 15.528 19.488 14.312 19.488H12.488V32.304L16.808 32.88V36H0.776V32.832L4.328 32.304V4.368L0.776 3.696V0.335999H16.04V3.696L12.488 4.368V16.56H15.608L23.576 4.32L20.216 3.696V0.335999H33.416V3.696L29.336 4.368L20.36 16.704ZM36.3163 22.8C36.3163 19.728 36.9243 17.136 38.1403 15.024C39.3563 12.88 40.9883 11.28 43.0363 10.224C45.1163 9.168 47.3883 8.64 49.8523 8.64C53.8843 8.64 57.0363 9.856 59.3083 12.288C61.6123 14.688 62.7643 18.048 62.7643 22.368C62.7643 25.536 62.1563 28.176 60.9403 30.288C59.7243 32.4 58.0923 33.968 56.0443 34.992C53.9963 36.016 51.7083 36.528 49.1803 36.528C45.1803 36.528 42.0283 35.328 39.7243 32.928C37.4523 30.496 36.3163 27.12 36.3163 22.8ZM49.6603 33.168C51.1963 33.168 52.3323 32.352 53.0683 30.72C53.8363 29.056 54.2203 26.464 54.2203 22.944C54.2203 19.2 53.8523 16.448 53.1163 14.688C52.4123 12.896 51.2123 12 49.5163 12C46.3803 12 44.8123 15.408 44.8123 22.224C44.8123 25.936 45.1963 28.688 45.9643 30.48C46.7323 32.272 47.9643 33.168 49.6603 33.168ZM82.0411 9.312L86.7931 23.808L87.8491 27.456L88.7611 23.808L93.2731 9.312H108.009V12.432L103.689 13.008L106.905 32.4L110.313 32.832V36H95.1931V32.832L98.7451 32.352L97.3051 18.432L96.4411 12.24L94.6651 18.384L89.4811 34.176H83.2411L77.5291 18.24L75.6091 12.144L75.0331 18.24L73.2091 32.4L77.2891 32.832V36H64.8091V32.832L68.4091 32.4L71.5771 13.008L67.1131 12.432V9.312H82.0411ZM143.647 9.312V12.432L140.383 13.008V32.352L143.503 32.832V36H129.247V32.832L132.415 32.352V12.624H123.247V32.352L126.175 32.832V36H112.111V32.832L115.279 32.304V13.008L112.015 12.432V9.312H143.647ZM146.922 28.32C146.922 25.504 148.346 23.344 151.194 21.84C154.074 20.336 157.85 19.568 162.522 19.536V18.576C162.522 17.424 162.394 16.512 162.138 15.84C161.882 15.168 161.418 14.672 160.746 14.352C160.074 14 159.082 13.824 157.77 13.824C156.202 13.824 154.794 14.016 153.546 14.4C152.33 14.752 151.05 15.232 149.706 15.84L148.074 12.384C148.586 11.968 149.418 11.472 150.57 10.896C151.722 10.288 153.098 9.776 154.698 9.36C156.33 8.912 158.026 8.688 159.786 8.688C162.346 8.688 164.346 9.024 165.786 9.696C167.258 10.368 168.298 11.408 168.906 12.816C169.546 14.224 169.866 16.144 169.866 18.576V32.832H172.362V35.856C171.626 36.016 170.602 36.176 169.29 36.336C167.978 36.496 166.858 36.576 165.93 36.576C164.714 36.576 163.898 36.4 163.482 36.048C163.098 35.696 162.906 34.992 162.906 33.936V32.832C162.106 33.792 161.034 34.656 159.69 35.424C158.346 36.16 156.794 36.528 155.034 36.528C153.53 36.528 152.154 36.208 150.906 35.568C149.69 34.896 148.714 33.952 147.978 32.736C147.274 31.488 146.922 30.016 146.922 28.32ZM158.778 32.112C159.354 32.112 159.994 31.952 160.698 31.632C161.402 31.28 162.01 30.864 162.522 30.384V22.752C160.026 22.752 158.17 23.2 156.954 24.096C155.77 24.992 155.178 26.144 155.178 27.552C155.178 28.992 155.498 30.112 156.138 30.912C156.778 31.712 157.658 32.112 158.778 32.112ZM189.273 9.312V12.432L186.105 13.008V20.448H196.233V13.008L193.017 12.432V9.312H207.417V12.432L204.201 13.008V32.4L207.417 32.832V36H192.969V32.832L196.233 32.4V23.904H186.105V32.4L189.321 32.832V36H174.969V32.832L178.185 32.4V13.008L174.921 12.432V9.312H189.273ZM226.03 9.312V12.432L222.526 13.008V26.496L225.07 23.136L233.422 14.112V13.008L230.398 12.432V9.312H244.51V12.432L241.39 13.008V32.4L244.654 32.832V36H230.014V32.832L233.422 32.4V18.576L230.878 22.32L222.526 31.248V32.496L225.646 32.832V36H211.438V32.832L214.606 32.4V13.008L211.486 12.432V9.312H226.03ZM262.003 25.584C261.427 25.968 260.947 26.592 260.563 27.456C260.211 28.288 259.779 29.504 259.267 31.104C258.723 32.768 258.243 34 257.827 34.8C257.443 35.6 256.947 36 256.339 36H247.507V32.784L249.427 32.304C250.163 32.112 250.787 31.696 251.299 31.056C251.811 30.384 252.387 29.424 253.027 28.176C253.443 27.344 253.795 26.688 254.083 26.208C254.403 25.696 254.755 25.296 255.139 25.008C253.187 24.464 251.715 23.536 250.723 22.224C249.731 20.88 249.235 19.2 249.235 17.184C249.235 14.528 250.275 12.496 252.355 11.088C254.467 9.68 257.683 8.976 262.003 8.976C263.475 8.976 265.363 9.04 267.667 9.168C269.107 9.264 270.339 9.312 271.363 9.312H277.507V12.48L274.195 13.008V32.304L277.651 32.784V36H262.819V32.784L266.371 32.304V25.584H262.003ZM266.371 12.24C265.571 12.08 264.467 12 263.059 12C259.571 12 257.827 13.536 257.827 16.608C257.827 18.368 258.243 19.808 259.075 20.928C259.907 22.016 261.267 22.56 263.155 22.56C264.883 22.56 265.955 22.528 266.371 22.464V12.24Z" fill="#333333"/>
<path d="M16.712 70.336V73.648L12.488 74.368V95.584L15.272 90.592L26.504 75.376V74.368L22.568 73.696V70.336H38.264V73.696L34.616 74.368V102.304L38.36 102.832V106H22.616V102.832L26.504 102.304V80.752L24.008 85.696L12.488 100.96V102.304L16.664 102.832V106H0.728V102.832L4.376 102.352V74.32L0.776 73.696V70.336H16.712ZM48.3665 79.312C49.1985 79.312 50.3025 79.264 51.6785 79.168C54.1745 79.04 56.0785 78.976 57.3905 78.976C61.8385 78.976 64.8945 79.504 66.5585 80.56C68.2225 81.616 69.0545 83.12 69.0545 85.072C69.0545 88.24 67.3745 90.336 64.0145 91.36C66.4785 91.616 68.3185 92.32 69.5345 93.472C70.7505 94.624 71.3585 96.032 71.3585 97.696C71.3585 100.48 70.2865 102.608 68.1425 104.08C66.0305 105.552 62.3025 106.288 56.9585 106.288C55.8385 106.288 54.8625 106.272 54.0305 106.24C53.1985 106.208 52.5105 106.176 51.9665 106.144C50.5265 106.048 49.2465 106 48.1265 106H42.1745V102.832L45.2945 102.304V83.008L42.1265 82.432V79.312H48.3665ZM56.2385 90.304C58.0305 90.304 59.2945 89.872 60.0305 89.008C60.7985 88.112 61.1825 87.024 61.1825 85.744C61.1825 84.56 60.8305 83.68 60.1265 83.104C59.4545 82.496 58.2385 82.192 56.4785 82.192C54.8785 82.192 53.7425 82.224 53.0705 82.288V90.304H56.2385ZM53.0705 102.688C53.4865 102.88 54.5745 102.976 56.3345 102.976C58.5425 102.976 60.0945 102.576 60.9905 101.776C61.9185 100.944 62.3825 99.744 62.3825 98.176C62.3825 96.608 61.9185 95.44 60.9905 94.672C60.0945 93.872 58.6225 93.472 56.5745 93.472H53.0705V102.688ZM73.9378 98.32C73.9378 95.504 75.3618 93.344 78.2098 91.84C81.0898 90.336 84.8658 89.568 89.5378 89.536V88.576C89.5378 87.424 89.4098 86.512 89.1538 85.84C88.8978 85.168 88.4338 84.672 87.7618 84.352C87.0898 84 86.0978 83.824 84.7858 83.824C83.2178 83.824 81.8098 84.016 80.5618 84.4C79.3458 84.752 78.0658 85.232 76.7218 85.84L75.0898 82.384C75.6018 81.968 76.4338 81.472 77.5858 80.896C78.7378 80.288 80.1138 79.776 81.7138 79.36C83.3458 78.912 85.0418 78.688 86.8018 78.688C89.3618 78.688 91.3618 79.024 92.8018 79.696C94.2738 80.368 95.3138 81.408 95.9218 82.816C96.5618 84.224 96.8818 86.144 96.8818 88.576V102.832H99.3778V105.856C98.6418 106.016 97.6178 106.176 96.3058 106.336C94.9938 106.496 93.8738 106.576 92.9458 106.576C91.7298 106.576 90.9138 106.4 90.4978 106.048C90.1138 105.696 89.9218 104.992 89.9218 103.936V102.832C89.1218 103.792 88.0498 104.656 86.7057 105.424C85.3618 106.16 83.8098 106.528 82.0498 106.528C80.5458 106.528 79.1698 106.208 77.9218 105.568C76.7058 104.896 75.7298 103.952 74.9938 102.736C74.2898 101.488 73.9378 100.016 73.9378 98.32ZM85.7938 102.112C86.3698 102.112 87.0098 101.952 87.7138 101.632C88.4178 101.28 89.0258 100.864 89.5378 100.384V92.752C87.0418 92.752 85.1858 93.2 83.9698 94.096C82.7858 94.992 82.1938 96.144 82.1938 97.552C82.1938 98.992 82.5138 100.112 83.1538 100.912C83.7938 101.712 84.6738 102.112 85.7938 102.112ZM116.289 79.312V82.432L113.121 83.008V90.448H123.249V83.008L120.033 82.432V79.312H134.433V82.432L131.217 83.008V102.4L134.433 102.832V106H119.985V102.832L123.249 102.4V93.904H113.121V102.4L116.337 102.832V106H101.985V102.832L105.201 102.4V83.008L101.937 82.432V79.312H116.289ZM138.598 92.8C138.598 89.728 139.206 87.136 140.422 85.024C141.638 82.88 143.27 81.28 145.318 80.224C147.398 79.168 149.67 78.64 152.134 78.64C156.166 78.64 159.318 79.856 161.59 82.288C163.894 84.688 165.046 88.048 165.046 92.368C165.046 95.536 164.438 98.176 163.222 100.288C162.006 102.4 160.374 103.968 158.326 104.992C156.278 106.016 153.99 106.528 151.462 106.528C147.462 106.528 144.31 105.328 142.006 102.928C139.734 100.496 138.598 97.12 138.598 92.8ZM151.942 103.168C153.478 103.168 154.614 102.352 155.35 100.72C156.118 99.056 156.502 96.464 156.502 92.944C156.502 89.2 156.134 86.448 155.398 84.688C154.694 82.896 153.494 82 151.798 82C148.662 82 147.094 85.408 147.094 92.224C147.094 95.936 147.478 98.688 148.246 100.48C149.014 102.272 150.246 103.168 151.942 103.168ZM175.538 79.312C176.37 79.312 177.474 79.264 178.85 79.168C181.346 79.04 183.25 78.976 184.562 78.976C189.01 78.976 192.066 79.504 193.73 80.56C195.394 81.616 196.226 83.12 196.226 85.072C196.226 88.24 194.546 90.336 191.186 91.36C193.65 91.616 195.49 92.32 196.706 93.472C197.922 94.624 198.53 96.032 198.53 97.696C198.53 100.48 197.458 102.608 195.314 104.08C193.202 105.552 189.474 106.288 184.13 106.288C183.01 106.288 182.034 106.272 181.202 106.24C180.37 106.208 179.682 106.176 179.138 106.144C177.698 106.048 176.418 106 175.298 106H169.346V102.832L172.466 102.304V83.008L169.298 82.432V79.312H175.538ZM183.41 90.304C185.202 90.304 186.466 89.872 187.202 89.008C187.97 88.112 188.354 87.024 188.354 85.744C188.354 84.56 188.002 83.68 187.298 83.104C186.626 82.496 185.41 82.192 183.65 82.192C182.05 82.192 180.914 82.224 180.242 82.288V90.304H183.41ZM180.242 102.688C180.658 102.88 181.746 102.976 183.506 102.976C185.714 102.976 187.266 102.576 188.162 101.776C189.09 100.944 189.554 99.744 189.554 98.176C189.554 96.608 189.09 95.44 188.162 94.672C187.266 93.872 185.794 93.472 183.746 93.472H180.242V102.688ZM237.254 70.336V73.648L233.558 74.32V102.304L237.494 102.832V106H221.894V102.832L225.35 102.304V73.888H213.302V102.352L217.094 102.832V106H201.494V102.832L205.142 102.352V74.368L201.398 73.696V70.336H237.254ZM267.994 91.792C267.994 94.448 267.434 96.896 266.314 99.136C265.226 101.376 263.594 103.168 261.418 104.512C259.274 105.856 256.682 106.528 253.642 106.528C253.13 106.528 252.57 106.48 251.962 106.384C251.386 106.288 250.938 106.176 250.618 106.048L250.762 109.936V114.016L254.89 114.64V117.616H240.154V114.64L243.082 114.016V84.352L240.154 83.488V79.744L248.746 78.688H248.842L250.138 79.696V82.288C250.874 81.296 251.898 80.448 253.21 79.744C254.554 79.008 256.01 78.64 257.578 78.64C260.65 78.64 263.146 79.728 265.066 81.904C267.018 84.048 267.994 87.344 267.994 91.792ZM254.746 83.056C253.914 83.056 253.13 83.232 252.394 83.584C251.658 83.904 251.114 84.304 250.762 84.784V102.352C250.986 102.64 251.37 102.88 251.914 103.072C252.49 103.264 253.114 103.36 253.786 103.36C255.578 103.36 257.002 102.496 258.058 100.768C259.146 99.04 259.69 96.24 259.69 92.368C259.69 89.232 259.242 86.896 258.346 85.36C257.45 83.824 256.25 83.056 254.746 83.056ZM271.769 92.8C271.769 89.728 272.377 87.136 273.593 85.024C274.809 82.88 276.441 81.28 278.489 80.224C280.569 79.168 282.841 78.64 285.305 78.64C289.337 78.64 292.489 79.856 294.761 82.288C297.065 84.688 298.217 88.048 298.217 92.368C298.217 95.536 297.609 98.176 296.393 100.288C295.177 102.4 293.545 103.968 291.497 104.992C289.449 106.016 287.161 106.528 284.633 106.528C280.633 106.528 277.481 105.328 275.177 102.928C272.905 100.496 271.769 97.12 271.769 92.8ZM285.113 103.168C286.649 103.168 287.785 102.352 288.521 100.72C289.289 99.056 289.673 96.464 289.673 92.944C289.673 89.2 289.305 86.448 288.569 84.688C287.865 82.896 286.665 82 284.969 82C281.833 82 280.265 85.408 280.265 92.224C280.265 95.936 280.649 98.688 281.417 100.48C282.185 102.272 283.417 103.168 285.113 103.168ZM317.494 79.312L322.246 93.808L323.302 97.456L324.214 93.808L328.726 79.312H343.462V82.432L339.142 83.008L342.358 102.4L345.766 102.832V106H330.646V102.832L334.198 102.352L332.758 88.432L331.894 82.24L330.118 88.384L324.934 104.176H318.694L312.982 88.24L311.062 82.144L310.486 88.24L308.662 102.4L312.742 102.832V106H300.262V102.832L303.862 102.4L307.03 83.008L302.566 82.432V79.312H317.494Z" fill="#005FA3"/>
</svg>
